<svg id="Layer_1" data-name="Layer 1" xmlns="http://www.w3.org/2000/svg" viewBox="0 0 40 40">
  <defs>
    <style>
      .cls-1 {
        fill: #474747;
      }
    </style>
  </defs>
  <g>
    <path class="cls-1" d="M27.5,0h-15A12.5,12.5,0,0,0,0,12.5v15A12.5,12.5,0,0,0,12.5,40h15A12.5,12.5,0,0,0,40,27.5v-15A12.5,12.5,0,0,0,27.5,0Zm8.75,27.5a8.75,8.75,0,0,1-8.75,8.75h-15A8.76,8.76,0,0,1,3.75,27.5v-15A8.75,8.75,0,0,1,12.5,3.75h15a8.76,8.76,0,0,1,8.75,8.75Z"/>
    <path class="cls-1" d="M20,10A10,10,0,1,0,30,20,10,10,0,0,0,20,10Zm0,16.25A6.25,6.25,0,1,1,26.25,20,6.25,6.25,0,0,1,20,26.25Z"/>
    <circle class="cls-1" cx="30.75" cy="9.25" r="1.33"/>
  </g>
</svg>
