<svg id="Layer_1" data-name="Layer 1" xmlns="http://www.w3.org/2000/svg" viewBox="0 0 47 40">
  <defs>
    <style>
      .cls-1 {
        fill: #474747;
        fill-rule: evenodd;
      }
    </style>
  </defs>
  <path class="cls-1" d="M40.45,23.18a62.79,62.79,0,0,1,4.6,4.63,12.89,12.89,0,0,1,1.65,2.37c.64,1.23.06,2.58-1,2.66H38.81a5.28,5.28,0,0,1-4.36-1.77c-.94-1-1.82-2-2.73-3A6.68,6.68,0,0,0,30.49,27a1.44,1.44,0,0,0-2.29.55,7.33,7.33,0,0,0-.72,3.19c-.07,1.62-.56,2-2.18,2.11a17.47,17.47,0,0,1-9.79-2.1,21.76,21.76,0,0,1-6.6-6.18A83.18,83.18,0,0,1,.24,9.09c-.55-1.22-.15-1.87,1.2-1.9q3.35-.06,6.7,0A2,2,0,0,1,10,8.58,42,42,0,0,0,14.54,17a7.22,7.22,0,0,0,1.72,1.89A1,1,0,0,0,18,18.37a5.74,5.74,0,0,0,.39-1.77,26.16,26.16,0,0,0-.11-6.19,2.58,2.58,0,0,0-2.19-2.36c-.66-.12-.56-.37-.24-.74a2.46,2.46,0,0,1,2.1-1h7.74c1.21.24,1.48.79,1.65,2v8.59c0,.48.23,1.89,1.09,2.2.68.22,1.13-.32,1.54-.76a26.4,26.4,0,0,0,4.36-6.69c.53-1.06,1-2.16,1.41-3.26a1.68,1.68,0,0,1,1.75-1.2H45a3.66,3.66,0,0,1,.66,0c1.25.21,1.6.75,1.21,2a18.64,18.64,0,0,1-3,5.13c-1.24,1.72-2.57,3.38-3.8,5.11s-1.05,2.38.36,3.75Z"/>
</svg>
