<?xml version="1.0" standalone="no"?>
<!DOCTYPE svg PUBLIC "-//W3C//DTD SVG 20010904//EN"
 "http://www.w3.org/TR/2001/REC-SVG-20010904/DTD/svg10.dtd">
<svg version="1.0" xmlns="http://www.w3.org/2000/svg"
 width="43.000000pt" height="43.000000pt" viewBox="0 0 43.000000 43.000000"
 preserveAspectRatio="xMidYMid meet">

<g transform="translate(0.000000,43.000000) scale(0.100000,-0.100000)"
fill="#000000" stroke="none">
<path d="M105 424 c-83 -21 -99 -55 -99 -212 1 -107 3 -126 21 -150 33 -44 59
-52 183 -52 189 0 211 21 213 203 2 186 -19 209 -193 213 -58 2 -114 1 -125
-2z m255 -54 c28 -28 32 -55 28 -174 -3 -94 -5 -108 -26 -128 -21 -22 -31 -23
-148 -23 l-126 0 -25 29 c-24 28 -24 33 -21 153 4 165 2 163 174 163 110 0
126 -2 144 -20z"/>
<path d="M304 339 c-9 -15 12 -33 30 -26 9 4 16 13 16 22 0 17 -35 21 -46 4z"/>
<path d="M139 291 c-41 -41 -41 -98 0 -143 43 -48 109 -48 152 0 33 37 37 77
14 122 -19 37 -43 50 -95 50 -33 0 -48 -6 -71 -29z m119 -18 c32 -27 37 -64
12 -96 -29 -37 -80 -37 -109 -1 -27 35 -26 59 4 89 28 29 65 32 93 8z"/>
</g>
</svg>
